<svg xmlns="http://www.w3.org/2000/svg" viewBox="0 0 64 64"><defs><style>.cls-1{fill:#35353d;}</style></defs><title>Asset 43</title><g id="Layer_2" data-name="Layer 2"><g id="Layer_1-2" data-name="Layer 1"><path class="cls-1" d="M30.18.78,11.4,19.5a2.67,2.67,0,0,0,3.76,3.78L29.28,9.21V50.35a2.67,2.67,0,1,0,5.33,0V9L48.72,23.27a2.67,2.67,0,0,0,3.77,0,2.63,2.63,0,0,0,.79-1.89,2.68,2.68,0,0,0-.77-1.88L34,.79a2.67,2.67,0,0,0-3.78,0Z" id="id_101" style="fill: rgb(255, 255, 255);"></path><path class="cls-1" d="M56,64H8a8,8,0,0,1-8-8V37.33a2.67,2.67,0,0,1,5.33,0V56A2.67,2.67,0,0,0,8,58.67H56A2.67,2.67,0,0,0,58.67,56V37.33a2.67,2.67,0,0,1,5.33,0V56A8,8,0,0,1,56,64Z" id="id_102" style="fill: rgb(255, 255, 255);"></path></g></g></svg>